<?xml version="1.0" encoding="UTF-8" standalone="no"?>
<!-- Generator: Adobe Illustrator 19.0.0, SVG Export Plug-In . SVG Version: 6.00 Build 0)  -->

<svg
   xmlns:dc="http://purl.org/dc/elements/1.1/"
   xmlns:cc="http://creativecommons.org/ns#"
   xmlns:rdf="http://www.w3.org/1999/02/22-rdf-syntax-ns#"
   xmlns:svg="http://www.w3.org/2000/svg"
   xmlns="http://www.w3.org/2000/svg"
   xmlns:sodipodi="http://sodipodi.sourceforge.net/DTD/sodipodi-0.dtd"
   xmlns:inkscape="http://www.inkscape.org/namespaces/inkscape"
   version="1.1"
   id="Layer_1"
   x="0px"
   y="0px"
   viewBox="0 0 318.543 318.543"
   style="enable-background:new 0 0 318.543 318.543;"
   xml:space="preserve"
   sodipodi:docname="vera_.svg"
   inkscape:version="0.92pre3 r"><metadata
     id="metadata69"><rdf:RDF><cc:Work
         rdf:about=""><dc:format>image/svg+xml</dc:format><dc:type
           rdf:resource="http://purl.org/dc/dcmitype/StillImage" /></cc:Work></rdf:RDF></metadata><defs
     id="defs67" /><sodipodi:namedview
     pagecolor="#ffffff"
     bordercolor="#666666"
     borderopacity="1"
     objecttolerance="10"
     gridtolerance="10"
     guidetolerance="10"
     inkscape:pageopacity="0"
     inkscape:pageshadow="2"
     inkscape:window-width="3200"
     inkscape:window-height="1679"
     id="namedview65"
     showgrid="false"
     inkscape:zoom="2.9634932"
     inkscape:cx="49.990037"
     inkscape:cy="211.68098"
     inkscape:window-x="0"
     inkscape:window-y="55"
     inkscape:window-maximized="1"
     inkscape:current-layer="g30" /><g
     id="g32"><g
       id="g30"><path
         style="fill:#483e37;stroke-width:1"
         d="m 159.20077,235.75649 c -60.595936,0 -79.450798,-11.77483 -79.450798,-11.77483 C 103.7337,186.23434 82.306547,153.92165 78.351945,122.08784 72.193972,72.540722 83.846041,0 158.04777,0 c 48.00445,0 65.75161,25.984973 72.37282,37.307014 15.15915,25.915749 15.01399,78.167126 2.858,117.929876 -10.81991,35.38691 3.8455,66.06094 3.8455,66.06094 0,0 -17.32647,14.45866 -77.92332,14.45866 z"
         id="path2"
         inkscape:connector-curvature="0" /><path
         style="fill:#e8c59e;stroke-width:1"
         d="M 285.12854,253.096 C 275.39968,215.342 226.54366,219.53 205.45953,208.688 184.37541,197.846 187.66521,161.469 184.99398,155.14 h -51.44404 c -2.67123,6.329 0.6232,42.711 -20.46555,53.548 -21.084121,10.842 -69.940146,6.655 -79.669004,44.408 -5.368347,20.824 -5.108529,27.187 -6.595318,50.26 0,0 67.03499,15.187 130.936442,15.187 63.90145,0 133.96642,-15.187 133.96642,-15.187 -1.48124,-23.073 -1.22604,-29.435 -6.59439,-50.26 z"
         id="path4"
         inkscape:connector-curvature="0" /><path
         style="fill:#ddb58e;stroke-width:1"
         d="m 178.21651,217.001 c 21.08413,10.842 69.94015,6.655 79.66901,44.408 5.11408,19.83 5.12425,26.552 6.3919,47.073 16.78649,-2.816 27.44459,-5.126 27.44459,-5.126 -1.48124,-23.067 -1.22605,-29.435 -6.59532,-50.26 -9.72886,-37.754 -58.58488,-33.566 -79.66901,-44.408 -21.08412,-10.842 -17.79432,-47.219 -20.46555,-53.548 h -27.23747 c 0.002,0 -0.62689,51.024 20.46185,61.861 z"
         id="path6"
         inkscape:connector-curvature="0" /><path
         style="fill:#d15852;stroke-width:1"
         d="m 69.018825,311.056 c 24.664254,3.76 57.083295,7.487 88.737685,7.487 32.66315,0 66.93143,-3.968 92.63496,-7.846 12.3742,-11.792 30.65672,-14.361 40.86915,-14.81 -1.03927,-17.283 -1.39248,-24.405 -6.13208,-42.79 -8.99101,-34.887 -51.39226,-33.96 -74.41531,-42.171 2.82749,17.874 11.42831,95.14 -51.18977,95.14 -62.84646,0 -53.95993,-77.829 -51.16388,-95.331 -22.897303,8.42 -65.881988,7.211 -74.939571,42.363 -4.734057,18.374 -5.09281,25.495 -6.132083,42.767 10.205961,0.392 29.159758,2.893 41.730899,15.191 z"
         id="path8"
         inkscape:connector-curvature="0" /><path
         style="fill:#c65044;stroke-width:1"
         d="m 285.12854,253.096 c -8.99101,-34.887 -51.39226,-33.96 -74.41531,-42.171 0.52981,3.361 1.26765,8.83 1.6939,15.485 19.60843,4.761 39.62184,12.292 45.47839,35.005 4.52139,17.536 5.0512,24.821 5.99247,40.452 9.93689,-4.407 20.49698,-5.677 27.38263,-5.98 -1.03927,-17.29 -1.39248,-24.411 -6.13208,-42.791 z"
         id="path10"
         inkscape:connector-curvature="0" /><path
         style="fill:#cca281;stroke-width:1"
         d="m 126.63193,192.737 c 8.53333,7.959 18.54234,15.85 32.58456,18.132 14.08844,-2.288 24.0614,-10.342 32.61044,-18.334 -7.10941,-14.973 -4.91066,-32.83 -6.83387,-37.4 h -51.44404 c -1.92784,4.575 0.22376,22.623 -6.91709,37.602 z"
         id="path12"
         inkscape:connector-curvature="0" /><g
         id="g28"
         transform="matrix(0.92462056,0,0,1,12.005797,0)"
         style="stroke-width:1.03996384"><ellipse
           transform="matrix(-0.177,0.9842,-0.9842,-0.177,380.1026,-81.5687)"
           style="fill:#ddb58e;stroke-width:1.08152473"
           cx="224.155"
           cy="118.137"
           rx="21.386"
           ry="11.629"
           id="ellipse14" /><ellipse
           transform="matrix(-0.9842,0.177,-0.177,-0.9842,207.8556,217.7438)"
           style="fill:#e8c59e;stroke-width:1.08152473"
           cx="94.216003"
           cy="118.143"
           rx="11.629"
           ry="21.386"
           id="ellipse16" /><path
           style="fill:#e8c59e;stroke-width:1.08152473"
           d="m 159.735,56.161 c 0,0 -65.874,-7.487 -66.683,11.927 -0.793,19.02 0.124,21.712 -0.028,26.181 -1.551,44.156 7.464,104.645 66.171,113.48 62.979,-9.476 68.808,-77.969 65.727,-122.456 -1.533,-22.151 -65.187,-29.132 -65.187,-29.132 z"
           id="path18"
           inkscape:connector-curvature="0" /><path
           style="fill:#ddb58e;stroke-width:1.08152473"
           d="m 159.195,207.749 c 94.331,-14.192 60.45,-160.806 60.45,-160.806 h -14.141 c 3.873,61.242 9.229,93.774 -13.006,129.24 -17.615,28.104 -33.303,31.566 -33.303,31.566 z"
           id="path20"
           inkscape:connector-curvature="0" /><path
           style="fill:#ddb58e;stroke-width:1.08152473"
           d="m 91.709,96.989 c 0,0 37.248,10.123 67.565,-19.009 0,0 19.408,26.209 66.216,19.133 V 60.905 H 91.709 Z"
           id="path22"
           inkscape:connector-curvature="0" /><path
           style="fill:#3b332d;fill-opacity:1;stroke-width:1.03996384"
           d="M 228.076,52.266 C 219.538,25.911 159.207,20.341 159.195,20.341 v 0 0 0 0 c -0.011,0 -60.343,5.57 -68.881,31.925 -8.538,26.361 1.394,44.723 1.394,44.723 20.234,2.383 48.354,-4.817 67.487,-24.304 19.138,19.492 46.055,26.816 66.29,24.433 0,0.001 11.129,-18.491 2.591,-44.852 z"
           id="path24"
           inkscape:connector-curvature="0" /><path
           style="fill:#e0605c;stroke-width:1.08152473"
           d="m 91.709,76.395 c 0,0 23.517,-20.234 67.492,-20.234 43.975,0 67.391,20.234 67.391,20.234 0,0 -16.727,-38.979 -67.391,-38.979 -50.664,0 -67.492,38.979 -67.492,38.979 z"
           id="path26"
           inkscape:connector-curvature="0" /></g><path
         inkscape:connector-curvature="0"
         style="fill:#5d536c;stroke-width:0.99999994"
         d="m 193.54052,100.62626 c -14.14977,-0.046 -27.24208,4.30412 -34.26859,4.30412 -7.0265,0 -20.11794,-4.35506 -34.26858,-4.30412 -12.56703,0.0419 -24.39105,1.96717 -28.232174,2.96062 -0.621179,0.16188 -1.058339,0.69764 -1.058339,1.31145 v 5.71334 c 0,0.53576 0.330029,1.02056 0.844944,1.2375 0.544288,0.22597 1.223349,0.59081 1.670019,1.11342 0.839758,0.98358 2.36463,11.06595 7.05069,14.58533 3.02988,2.27203 11.63482,4.31397 19.13218,4.17511 7.49304,-0.13887 16.2967,-0.48481 21.1521,-3.98611 6.70598,-4.83083 7.61918,-13.7587 9.2555,-16.0677 1.31148,-1.8472 3.34608,-2.13809 4.45281,-2.13809 1.10671,0 3.14217,0.28595 4.45279,2.13809 1.63632,2.309 2.54952,11.23687 9.2555,16.0677 4.86059,3.50047 13.65992,3.84724 21.1521,3.98611 7.49217,0.13886 16.1023,-1.89815 19.13217,-4.17511 4.68607,-3.51938 6.21094,-13.60175 7.0507,-14.58533 0.44666,-0.52179 1.12659,-0.88663 1.67089,-1.11342 0.51491,-0.21694 0.84494,-0.70174 0.84494,-1.2375 v -5.71334 c 0,-0.61464 -0.43198,-1.1504 -1.05834,-1.31145 -3.8394,-0.99262 -15.66861,-2.91871 -28.23131,-2.96062 z m -44.77594,16.83929 c -1.15079,3.92612 -3.47655,7.03876 -6.29821,8.60905 -2.86054,1.59329 -12.5869,2.54976 -17.12695,2.55387 -5.97248,0.005 -15.83016,-1.54728 -18.04965,-3.42242 -2.21949,-1.87514 -2.90892,-5.25155 -3.40396,-8.11438 -0.49505,-2.85872 -1.44194,-7.74543 1.0929,-9.98951 3.15169,-2.78477 16.70448,-3.71824 20.30715,-3.56047 7.49304,0.32786 21.89509,1.92116 24.06102,5.25154 1.37886,2.10029 0.37841,5.39287 -0.5823,8.67232 z m 65.87966,-0.37881 c -0.49505,2.85873 -1.18448,6.23924 -3.40396,8.11438 -2.21949,1.87514 -12.07198,3.42735 -18.04966,3.42242 -4.53574,0 -14.26641,-0.95565 -17.12695,-2.55388 -2.82166,-1.57028 -5.14742,-4.68291 -6.29819,-8.60904 -0.96158,-3.27944 -1.96203,-6.57203 -0.59268,-8.67807 2.17025,-3.32956 16.56884,-4.92368 24.06102,-5.25155 3.59835,-0.15694 17.15114,0.7757 20.30715,3.56047 2.54606,2.24985 1.594,7.13655 1.10327,9.99527 z"
         id="path46" /></g></g><g
     id="g34" /><g
     id="g36" /><g
     id="g38" /><g
     id="g40" /><g
     id="g42" /><g
     id="g44" /><g
     id="g46" /><g
     id="g48" /><g
     id="g50" /><g
     id="g52" /><g
     id="g54" /><g
     id="g56" /><g
     id="g58" /><g
     id="g60" /><g
     id="g62" /></svg>