<?xml version="1.0" encoding="UTF-8" standalone="no"?>
<!-- Generator: Adobe Illustrator 19.0.0, SVG Export Plug-In . SVG Version: 6.00 Build 0)  -->
<svg id="Layer_1" style="enable-background:new 0 0 512 512" xmlns="http://www.w3.org/2000/svg" xml:space="preserve" viewBox="0 0 512 512" version="1.1" y="0px" x="0px" xmlns:xlink="http://www.w3.org/1999/xlink">
<circle cx="256" r="256" cy="256" fill="#FFC91B"/>
<path d="m507.45 304.18l-155.49-156.51-4.206 6.409-49.528 2.586v20.9l-59.402 1.939-29.089-29.091-33.113 5.961-1.939-1.939-32.468 1.357 31.534 32.332-84.687 79.155-5.141 47.306 195.42 196.35c114.37-10.35 207-95.87 228.12-206.76z" fill="#EAA22F"/>
<circle cx="137.05" r="66.37" cy="264.19" fill="#FFEDB5"/>
<circle cx="364.61" r="66.37" cy="264.19" fill="#FEE187"/>
<path d="m364.61 190.92c-11.271 0-21.952 2.563-31.501 7.13l-30.56-40.746h43.098c3.808 0 6.896-3.088 6.896-6.896s-3.088-6.896-6.896-6.896h-56.889c-2.612 0-4.999 1.476-6.168 3.812-1.167 2.336-0.915 5.132 0.652 7.221l13.059 17.411h-114.43v-14.653h21.549c3.808 0 6.896-3.088 6.896-6.896s-3.088-6.896-6.896-6.896h-56.889c-3.808 0-6.896 3.088-6.896 6.896s3.088 6.896 6.896 6.896h21.549v20.43l-5.879 17.636c-7.847-2.877-16.32-4.448-25.152-4.448-40.4 0-73.266 32.866-73.266 73.266s32.866 73.266 73.266 73.266c38.072 0 69.444-29.194 72.932-66.37h43.432v14.653h-21.549c-3.808 0-6.896 3.088-6.896 6.896s3.088 6.896 6.896 6.896h28.444c3.808 0 6.896-3.088 6.896-6.896v-21.549h24.469c3.487 37.176 34.859 66.37 72.932 66.37 40.4 0 73.266-32.866 73.266-73.266s-32.87-73.26-73.26-73.26zm-227.56 132.74c-32.794 0-59.475-26.681-59.475-59.475s26.681-59.475 59.475-59.475c7.309 0 14.312 1.333 20.785 3.756l-17.85 53.55c-0.7 2.103-0.348 4.415 0.948 6.213s3.377 2.863 5.594 2.863h49.581c-3.43 29.56-28.6 52.58-59.06 52.58zm33.19-108.8c14.041 9.48 23.823 24.793 25.871 42.432h-40.01l14.14-42.43zm90.07 13.99c-3.808 0-6.896 3.088-6.896 6.896v21.549h-43.432c-2.226-23.728-15.808-44.199-35.247-55.908l5.211-15.634h126.7l14.583 19.444c-16.365 12.067-27.546 30.765-29.548 52.098h-24.469v-21.549c0-3.81-3.08-6.9-6.89-6.9zm69.18-12.63l30.803 41.069h-54.753c1.96-16.82 10.95-31.52 23.95-41.07zm35.12 107.44c-30.461 0-55.632-23.023-59.063-52.579h68.544c2.612 0 4.999-1.476 6.168-3.812 1.167-2.336 0.915-5.132-0.652-7.221l-38.022-50.697c7.085-2.986 14.865-4.641 23.024-4.641 32.794 0 59.475 26.681 59.475 59.475s-26.68 59.48-59.47 59.48z" fill="#386895"/>
<path d="m364.61 190.92c-11.271 0-21.952 2.563-31.501 7.13l-30.56-40.746h43.098c3.808 0 6.896-3.088 6.896-6.896s-3.088-6.896-6.896-6.896h-56.889c-2.612 0-4.999 1.476-6.168 3.812-1.167 2.336-0.915 5.132 0.652 7.221l13.059 17.411h-41.444v13.791h51.788l14.583 19.444c-16.365 12.067-27.546 30.765-29.548 52.098h-24.469v-21.549c0-3.808-3.088-6.896-6.896-6.896-2.234 0-4.198 1.079-5.458 2.725v67.955h5.458c3.808 0 6.896-3.088 6.896-6.896v-21.549h24.469c3.487 37.176 34.859 66.37 72.932 66.37 40.4 0 73.266-32.866 73.266-73.266s-32.88-73.23-73.27-73.23zm-35.12 25.3l30.803 41.069h-54.753c1.96-16.82 10.95-31.52 23.95-41.07zm35.12 107.44c-30.461 0-55.632-23.023-59.063-52.579h68.544c2.612 0 4.999-1.476 6.168-3.812 1.167-2.336 0.915-5.132-0.652-7.221l-38.022-50.697c7.085-2.986 14.865-4.641 23.024-4.641 32.794 0 59.475 26.681 59.475 59.475s-26.68 59.48-59.47 59.48z" fill="#273B7A"/>
</svg>
