<?xml version="1.0" encoding="UTF-8" standalone="no"?>
<!-- Generator: Adobe Illustrator 19.0.0, SVG Export Plug-In . SVG Version: 6.00 Build 0)  -->
<svg id="Layer_1" style="enable-background:new 0 0 512 512" xmlns="http://www.w3.org/2000/svg" xml:space="preserve" viewBox="0 0 512 512" version="1.1" y="0px" x="0px" xmlns:xlink="http://www.w3.org/1999/xlink">
<circle cx="256" r="256" cy="256" fill="#9F8668"/>
<path d="m365.67 247.86l-80.36-80.358-185.75 202.28 141.8 141.8c4.84 0.27 9.72 0.42 14.64 0.42 141.38 0 256-114.62 256-256 0-4.918-0.153-9.799-0.426-14.648l-99.13-99.13-46.77 105.64z" fill="#725f48"/>
<rect height="227.56" width="312.89" y="142.22" x="99.556" fill="#FFEDB5"/>
<rect height="227.56" width="157.01" y="142.22" x="255.43" fill="#FEE187"/>
<rect height="31.03" width="312.89" y="142.22" x="99.556" fill="#FFC61B"/>
<rect height="31.03" width="157.01" y="142.22" x="255.43" fill="#EAA22F"/>
<rect height="113.78" width="113.78" y="199.11" x="113.78" fill="#02B2B2"/>
<rect height="85.333" width="85.333" y="213.33" x="128" fill="#fff"/>
<polygon points="128 298.67 147.25 267.64 161.26 283.15 192.29 252.55 213.33 298.67" fill="#FF5419"/>
<circle cx="159.96" r="13.36" cy="243.07" fill="#FFC61B"/>
<g fill="#FF5419">
	<rect height="24.997" width="24.997" y="188.77" x="275.82"/>
	<rect height="24.997" width="24.997" y="188.77" x="308.29"/>
	<rect height="24.997" width="24.997" y="188.77" x="340.76"/>
	<rect height="24.997" width="24.997" y="188.77" x="373.23"/>
	<rect height="24.997" width="24.997" y="223.25" x="275.82"/>
	<rect height="24.997" width="24.997" y="223.25" x="308.29"/>
	<rect height="24.997" width="24.997" y="223.25" x="340.76"/>
	<rect height="24.997" width="24.997" y="223.25" x="373.23"/>
	<rect height="24.997" width="24.997" y="256.86" x="275.82"/>
	<rect height="24.997" width="24.997" y="256.86" x="308.29"/>
	<rect height="24.997" width="24.997" y="256.86" x="340.76"/>
	<rect height="24.997" width="24.997" y="256.86" x="373.23"/>
	<rect height="24.997" width="24.997" y="291.34" x="275.82"/>
	<rect height="24.997" width="24.997" y="188.77" x="244.48"/>
	<rect height="24.997" width="24.997" y="223.25" x="244.48"/>
	<rect height="24.997" width="24.997" y="256.86" x="244.48"/>
	<rect height="24.997" width="24.997" y="291.34" x="244.48"/>
	<rect height="24.997" width="24.997" y="291.34" x="308.29"/>
	<rect height="24.997" width="24.997" y="291.34" x="340.76"/>
	<rect height="24.997" width="24.997" y="291.34" x="373.23"/>
	<rect height="24.997" width="24.997" y="325.44" x="275.82"/>
	<rect height="24.997" width="24.997" y="325.44" x="244.48"/>
	<rect height="24.997" width="24.997" y="325.44" x="308.29"/>
	<rect height="24.997" width="24.997" y="325.44" x="340.76"/>
	<rect height="24.997" width="24.997" y="325.44" x="373.23"/>
</g>
</svg>
