<?xml version="1.0" encoding="UTF-8" standalone="no"?>
<!-- Generator: Adobe Illustrator 18.0.0, SVG Export Plug-In . SVG Version: 6.00 Build 0)  -->
<!DOCTYPE svg  PUBLIC '-//W3C//DTD SVG 1.1//EN'  'http://www.w3.org/Graphics/SVG/1.1/DTD/svg11.dtd'>
<svg id="Capa_1" style="enable-background:new 0 0 373.74 373.74" xmlns="http://www.w3.org/2000/svg" xml:space="preserve" viewBox="0 0 373.74 373.74" version="1.1" y="0px" x="0px" xmlns:xlink="http://www.w3.org/1999/xlink">
	<path d="m340.25 186.86c0 12.21-1.29 24.11-3.73 35.59-16.36 76.87-84.64 134.54-166.39 134.54-16.5 0-32.45-2.35-47.53-6.73-32.33-9.39-60.69-28.11-81.96-53.06-4.31-5.05-8.33-10.36-12.02-15.9-18.09-27.02-28.62-59.5-28.62-94.44 0-38.86 13.02-74.67 34.95-103.3 31.09-40.63 80.08-66.82 135.18-66.82 79.22 0 145.79 54.15 164.72 127.45 3.53 13.65 5.4 27.93 5.4 42.67z" fill="#607D8B"/>
	<path d="m373.74 158.56c0 0.77-0.07 1.55-0.22 2.34-0.95 5.04-2.26 9.96-3.91 14.72-6.43 18.56-17.98 34.77-33.09 46.84-1.33 1.07-2.94 2.2-4.72 3.34-12.52 8.09-26.77 13.09-41.56 14.87-43.07 5.2-156.36 21.13-242.03 53.6-2.55 0.96-5.07 1.94-7.57 2.94-25.35-29.71-40.64-68.25-40.64-110.35 0-38.86 13.02-74.67 34.95-103.3h181.38c15.06 0 29.43 5.32 40.98 14.68 2.63 2.13 5.11 4.47 7.42 7.01l0.01 0.01c2.32 2.54 4.74 4.99 7.26 7.33 6.81 6.35 14.32 11.95 22.42 16.66 7.93 4.63 16.42 8.4 25.34 11.2 4.91 1.55 9.95 2.8 15.09 3.74 5.07 0.92 10.24 1.54 15.5 1.83 2.34 0.13 4.7 0.2 7.08 0.2 1.16 0 2.32-0.01 3.47-0.04 7.15-0.2 12.84 5.54 12.84 12.38z" fill="#ccc"/>
	<path d="m264.74 105.26s-102.11-8.86-135.44 59.14c0 0-5.31-41.07 26.02-80.84h61.01c18.49 0 35.95 8.02 48.4 21.69l0.01 0.01z" fill="#808080"/>
	<path d="m230.19 92.995c-15.99-0.93-31.9 1.92-46.47 8.22-4.91 2.13-9.67 4.65-14.23 7.55l-1.53 0.97c1.24-25.13 17.97-58.79 30.57-80.85 4.78-8.35 17.35-6.33 19.27 3.1l0.37 1.85 12.02 59.155z" fill="#ccc"/>
	<path d="m230.19 92.995c-15.99-0.93-31.9 1.92-46.47 8.22 5.66-21.54 17.79-45.36 27.48-62.33 1.65-2.88 4.23-4.52 6.97-5.05l12.02 59.155z" fill="#B3B3B3"/>
	<path d="m290.82 127.07l-29.847-8.859c-5.463-1.622-11.376-0.502-15.844 3.034-13.061 10.335-40.545 35.433-61.161 77.157 0 0 62.21 19.657 119.54-64.343l-12.69-6.99z" fill="#808080"/>
	<path d="m373.74 158.56c0 0.77-0.07 1.55-0.22 2.34-0.95 5.04-2.26 9.96-3.91 14.72-11.28-2.83-19.64-13.04-19.64-25.21 0-1.49 0.13-2.96 0.38-4.38 2.34 0.13 4.7 0.2 7.08 0.2 1.16 0 2.32-0.01 3.47-0.04 7.15-0.21 12.84 5.53 12.84 12.37z" fill="#666"/>
	<circle cx="266.25" r="10.103" cy="137.17" fill="#4D4D4D"/>
	<path d="m294.42 129.26l-5.21 5.21-35.33-29.58 3.43-6.64c2.63 2.13 5.11 4.47 7.42 7.01l0.01 0.01c2.32 2.54 4.74 4.99 7.26 7.33 6.81 6.34 14.32 11.94 22.42 16.66z" fill="#808080"/>
	<path d="m48.21 294.26c-2.55 0.96-5.07 1.94-7.57 2.94-25.35-29.7-40.64-68.24-40.64-110.34 0-38.86 13.02-74.67 34.95-103.3h83.59c0 0.005-79.33 49.84-70.33 210.7z" fill="#808080"/>
</svg>
