<?xml version="1.0" encoding="UTF-8" standalone="no"?>
<!-- Generator: Adobe Illustrator 19.0.0, SVG Export Plug-In . SVG Version: 6.00 Build 0)  -->
<svg id="Layer_1" style="enable-background:new 0 0 512 512" xmlns="http://www.w3.org/2000/svg" xml:space="preserve" viewBox="0 0 512 512" version="1.1" y="0px" x="0px" xmlns:xlink="http://www.w3.org/1999/xlink">
<path d="m496.54 168.19c-35.83-98.132-130-168.19-240.54-168.19-141.38 0-256 114.62-256 256 0 110.54 70.058 204.71 168.19 240.54l328.35-328.35z" fill="#E46964"/>
<path d="m168.19 496.54c27.39 10 56.96 15.46 87.81 15.46 141.38 0 256-114.62 256-256 0-30.847-5.458-60.419-15.458-87.806l-56.89-56.89-367.3 289.4 95.84 95.84z" fill="#ED004C"/>
<polygon points="164.17 133.56 72.348 111.3 72.348 256 175.3 300.52" fill="#fff"/>
<polygon points="267.13 267.13 256 111.3 164.17 133.56 164.17 300.52" fill="#EDD4B8"/>
<polygon points="358.96 300.52 347.83 133.56 256 111.3 256 256" fill="#EDBF8C"/>
<polygon points="347.83 133.56 347.83 300.52 439.65 256 439.65 111.3" fill="#EDA960"/>
<polygon points="72.348 256 72.348 400.7 164.17 422.96 175.3 350.61 164.17 278.26" fill="#EDD4B8"/>
<polygon points="164.17 278.26 164.17 422.96 256 400.7 267.13 328.35 256 256" fill="#EDBF8C"/>
<polygon points="256 256 256 400.7 347.83 422.96 358.96 350.61 347.83 278.26" fill="#EDA960"/>
<polygon points="347.83 422.96 439.65 400.7 439.65 256 347.83 278.26" fill="#ED9433"/>
<polygon points="267.13 297.87 267.13 237.22 347.83 259.49 347.83 180.74 256.18 155.46 256 155.5 256 178.5 325.56 197.69 325.56 230.25 256 211.06 256 300.94" fill="#EDD4B8"/>
<g fill="#fff">
	<polygon points="164.17 177.76 164.17 200.67 255.82 178.45 256 178.5 256 155.5"/>
	<polygon points="255.82 333.55 186.44 352.69 186.44 320.13 256 300.94 256 211.06 244.87 207.99 244.87 280.92 164.17 303.18 164.17 381.92 256 356.59 256 333.59"/>
</g>
<polygon points="256 333.59 256 356.59 256.18 356.54 347.83 378.76 347.83 355.85" fill="#EDD4B8"/>
<polygon points="439.65 333.59 347.83 355.85 347.83 378.76 439.65 356.5" fill="#EDBF8C"/>
<polygon points="72.348 155.5 164.17 177.76 164.17 200.67 72.348 178.41" fill="#EDD4B8"/>
<path d="m256 49.778c-44.567 0-80.696 36.128-80.696 80.696 0 19.741 7.092 37.823 18.864 51.847l61.84 73.68 25.363-103.11-25.36-103.11z" fill="#34D8C7"/>
<path d="m256 49.778v206.22l61.832-73.68c11.77-14.023 18.864-32.105 18.864-51.847 0.01-44.563-36.12-80.692-80.69-80.692z" fill="#0DC2AF"/>
<path d="m256 85.954c24.588 0 44.519 19.929 44.519 44.517s-19.93 44.53-44.52 44.53l-18.825-44.526 18.82-44.516z" fill="#98F0E7"/>
<path d="m256 85.954v89.043c-24.588 0-44.524-19.938-44.524-44.526s19.93-44.516 44.52-44.516z" fill="#fff"/>
</svg>
